<svg height="512" viewBox="0 0 512 512" width="512" xmlns="http://www.w3.org/2000/svg"><g id="Flat"><path d="m272 288-190.06 190.06a33.941 33.941 0 0 1 -48-48l28.79-28.79 161.27-161.27z" fill="#348fd9"/><path d="m180.38 379.62-98.44 98.44a33.941 33.941 0 0 1 -48-48l28.79-28.79a523.053 523.053 0 0 0 117.65-21.65z" fill="#3086cd"/><path d="m305.088 20.235h101.823v271.529h-101.823z" fill="#e0e0de" transform="matrix(.707 -.707 .707 .707 -6.039 297.421)"/><path d="m221.088 55.029h101.823v33.941h-101.823z" fill="#348fd9" transform="matrix(.707 -.707 .707 .707 28.755 213.421)"/><path d="m389.088 223.029h101.823v33.941h-101.823z" fill="#348fd9" transform="matrix(.707 -.707 .707 .707 -40.833 381.421)"/><path d="m359.999 42.177h16.001v203.647h-16.001z" fill="#c7c7c5" transform="matrix(.707 -.707 .707 .707 5.961 302.392)"/><path d="m335.999 66.177h16.001v203.647h-16.001z" fill="#c7c7c5" transform="matrix(.707 -.707 .707 .707 -18.039 292.451)"/><path d="m376 248-24 24-80 16-48-48 16-80 24-24 32 32-8 8a32.491 32.491 0 0 0 -3.66 4.34 33.934 33.934 0 0 0 47.32 47.32 32.491 32.491 0 0 0 4.34-3.66l8-8z" fill="#d6d6d4"/><g fill="#2d7dbf"><path d="m175.999 284.686h16.001v22.627h-16.001z" transform="matrix(.707 -.707 .707 .707 -155.411 216.804)"/><path d="m151.999 308.686h16.001v22.627h-16.001z" transform="matrix(.707 -.707 .707 .707 -179.411 206.863)"/><path d="m127.999 332.686h16.001v22.627h-16.001z" transform="matrix(.707 -.707 .707 .707 -203.411 196.922)"/><path d="m103.999 356.686h16.001v22.627h-16.001z" transform="matrix(.707 -.707 .707 .707 -227.411 186.981)"/><path d="m79.999 380.686h16.001v22.627h-16.001z" transform="matrix(.707 -.707 .707 .707 -251.411 177.04)"/><path d="m207.999 316.686h16.001v22.627h-16.001z" transform="matrix(.707 -.707 .707 .707 -168.666 248.804)"/><path d="m183.999 340.686h16.001v22.627h-16.001z" transform="matrix(.707 -.707 .707 .707 -192.666 238.863)"/><path d="m159.999 364.686h16.001v22.627h-16.001z" transform="matrix(.707 -.707 .707 .707 -216.666 228.922)"/><path d="m135.999 388.686h16.001v22.627h-16.001z" transform="matrix(.707 -.707 .707 .707 -240.666 218.981)"/><path d="m111.999 412.686h16.001v22.627h-16.001z" transform="matrix(.707 -.707 .707 .707 -264.666 209.04)"/></g><path d="m264 136 32 32-8 8a32.491 32.491 0 0 0 -3.66 4.34l-32.34-32.34z" fill="#cfcfcd"/><path d="m376 248-12 12-32.34-32.34a32.491 32.491 0 0 0 4.34-3.66l8-8z" fill="#cfcfcd"/></g></svg>